<svg width="87" height="88" viewBox="0 0 87 88" fill="none" xmlns="http://www.w3.org/2000/svg">
<mask id="mask0_132_504" style="mask-type:luminance" maskUnits="userSpaceOnUse" x="7" y="15" width="73" height="58">
<path d="M50.6283 15.2891H36.2337C22.6633 15.2891 15.8762 15.2891 11.6622 19.5067C8.62498 22.5403 7.7757 26.9091 7.53819 34.1819H79.3238C79.0863 26.9091 78.237 22.5403 75.1997 19.5067C70.9857 15.2891 64.1987 15.2891 50.6283 15.2891ZM36.2337 72.8672H50.6283C64.1987 72.8672 70.9857 72.8672 75.1997 68.6496C79.4137 64.432 79.4174 57.6486 79.4174 44.0782C79.4174 42.49 79.4149 40.9905 79.4101 39.5799H7.45182C7.44463 40.9905 7.44223 42.49 7.44463 44.0782C7.44463 57.6486 7.44462 64.4356 11.6622 68.6496C15.8798 72.8636 22.6633 72.8672 36.2337 72.8672Z" fill="white"/>
<path fill-rule="evenodd" clip-rule="evenodd" d="M19.1401 58.4724C19.1401 57.7566 19.4245 57.0701 19.9306 56.564C20.4368 56.0578 21.1233 55.7734 21.8391 55.7734H36.2337C36.9495 55.7734 37.636 56.0578 38.1421 56.564C38.6483 57.0701 38.9326 57.7566 38.9326 58.4724C38.9326 59.1882 38.6483 59.8747 38.1421 60.3809C37.636 60.887 36.9495 61.1714 36.2337 61.1714H21.8391C21.1233 61.1714 20.4368 60.887 19.9306 60.3809C19.4245 59.8747 19.1401 59.1882 19.1401 58.4724ZM42.5313 58.4724C42.5313 57.7566 42.8156 57.0701 43.3218 56.564C43.8279 56.0578 44.5144 55.7734 45.2302 55.7734H50.6282C51.344 55.7734 52.0305 56.0578 52.5367 56.564C53.0428 57.0701 53.3272 57.7566 53.3272 58.4724C53.3272 59.1882 53.0428 59.8747 52.5367 60.3809C52.0305 60.887 51.344 61.1714 50.6282 61.1714H45.2302C44.5144 61.1714 43.8279 60.887 43.3218 60.3809C42.8156 59.8747 42.5313 59.1882 42.5313 58.4724Z" fill="black"/>
</mask>
<g mask="url(#mask0_132_504)">
<path d="M0.247314 0.894531H86.6146V87.2618H0.247314V0.894531Z" fill="url(#paint0_linear_132_504)"/>
</g>
<defs>
<linearGradient id="paint0_linear_132_504" x1="43.431" y1="0.894531" x2="43.431" y2="87.2618" gradientUnits="userSpaceOnUse">
<stop stop-color="#FEE287"/>
<stop offset="0.355769" stop-color="#C8A73D"/>
<stop offset="1" stop-color="#8B6A02"/>
</linearGradient>
</defs>
</svg>
