<svg width="87" height="88" viewBox="0 0 87 88" fill="none" xmlns="http://www.w3.org/2000/svg">
<path d="M50.479 15.2891H36.0844C22.514 15.2891 15.727 15.2891 11.513 19.5067C8.4757 22.5403 7.62643 26.9091 7.38892 34.1819H79.1745C78.937 26.9091 78.0877 22.5403 75.0505 19.5067C70.8365 15.2891 64.0494 15.2891 50.479 15.2891Z" fill="url(#paint0_linear_132_535)"/>
<path fill-rule="evenodd" clip-rule="evenodd" d="M50.479 72.8675H36.0845C22.514 72.8675 15.727 72.8675 11.513 68.6499C7.29901 64.4323 7.29541 57.6488 7.29541 44.0784C7.29541 42.4902 7.29781 40.9907 7.30261 39.5801H79.2609C79.2657 40.9907 79.2681 42.4902 79.2681 44.0784C79.2681 57.6488 79.2681 64.4359 75.0505 68.6499C70.8329 72.8639 64.0495 72.8675 50.479 72.8675ZM57.8383 44.978C59.3965 44.978 60.8251 44.978 61.9839 45.1328C63.265 45.3055 64.6145 45.7086 65.7265 46.8241C66.8385 47.9397 67.2451 49.2856 67.4178 50.5667C67.5726 51.7291 67.5726 53.1577 67.5726 54.7123V55.0362C67.5726 56.5944 67.5726 58.0231 67.4178 59.1819C67.2451 60.463 66.842 61.8125 65.7265 62.9244C64.6109 64.0364 63.265 64.4431 61.9839 64.6158C60.8215 64.7705 59.3929 64.7705 57.8383 64.7705H57.5144C55.9562 64.7705 54.5275 64.7705 53.3688 64.6158C52.0876 64.4431 50.7382 64.04 49.6262 62.9244C48.5142 61.8089 48.1075 60.463 47.9348 59.1819C47.7801 58.0195 47.7801 56.5908 47.7801 55.0362V54.7123C47.7801 53.1541 47.7801 51.7255 47.9348 50.5667C48.1075 49.2856 48.5106 47.9361 49.6262 46.8241C50.7417 45.7122 52.0876 45.3055 53.3688 45.1328C54.5311 44.978 55.9598 44.978 57.5144 44.978H57.8383ZM18.991 49.4763C18.991 48.7605 19.2753 48.074 19.7815 47.5679C20.2876 47.0617 20.9741 46.7774 21.69 46.7774H28.8872C29.603 46.7774 30.2895 47.0617 30.7957 47.5679C31.3018 48.074 31.5862 48.7605 31.5862 49.4763C31.5862 50.1921 31.3018 50.8786 30.7957 51.3848C30.2895 51.8909 29.603 52.1753 28.8872 52.1753H21.69C20.9741 52.1753 20.2876 51.8909 19.7815 51.3848C19.2753 50.8786 18.991 50.1921 18.991 49.4763ZM18.991 60.2722C18.991 59.5564 19.2753 58.8699 19.7815 58.3638C20.2876 57.8576 20.9741 57.5733 21.69 57.5733H36.0845C36.8003 57.5733 37.4868 57.8576 37.993 58.3638C38.4991 58.8699 38.7835 59.5564 38.7835 60.2722C38.7835 60.9881 38.4991 61.6745 37.993 62.1807C37.4868 62.6869 36.8003 62.9712 36.0845 62.9712H21.69C20.9741 62.9712 20.2876 62.6869 19.7815 62.1807C19.2753 61.6745 18.991 60.9881 18.991 60.2722Z" fill="url(#paint1_linear_132_535)"/>
<path d="M53.4407 50.6377L53.4515 50.6341L53.4875 50.6161C53.6816 50.5473 53.8834 50.5026 54.0884 50.483C54.8441 50.3822 55.9021 50.375 57.6763 50.375C59.4504 50.375 60.5084 50.3822 61.2641 50.483C61.4821 50.5054 61.6962 50.5562 61.9011 50.6341L61.9119 50.6377L61.9155 50.6485L61.9335 50.6845C61.9659 50.7637 62.0198 50.9364 62.0666 51.2855C62.1674 52.0412 62.1746 53.0992 62.1746 54.8733C62.1746 56.6474 62.1674 57.7054 62.0666 58.4611C62.0441 58.6791 61.9933 58.8933 61.9155 59.0981L61.9119 59.1089L61.9011 59.1125L61.8651 59.1305C61.671 59.1993 61.4691 59.244 61.2641 59.2636C60.5084 59.3644 59.4504 59.3716 57.6763 59.3716C55.9021 59.3716 54.8441 59.3644 54.0884 59.2636C53.8704 59.2412 53.6563 59.1904 53.4515 59.1125L53.4407 59.1089L53.4371 59.0981L53.4191 59.0621C53.3503 58.868 53.3056 58.6661 53.2859 58.4611C53.1852 57.7054 53.178 56.6474 53.178 54.8733C53.178 53.0992 53.1852 52.0412 53.2859 51.2855C53.3084 51.0675 53.3592 50.8533 53.4371 50.6485L53.4407 50.6377Z" fill="url(#paint2_linear_132_535)"/>
<defs>
<linearGradient id="paint0_linear_132_535" x1="43.2817" y1="15.2891" x2="43.2817" y2="34.1819" gradientUnits="userSpaceOnUse">
<stop stop-color="#FFEAA7"/>
<stop offset="0.427885" stop-color="#EFC539"/>
<stop offset="1" stop-color="#EAB817"/>
</linearGradient>
<linearGradient id="paint1_linear_132_535" x1="43.2818" y1="39.5801" x2="43.2818" y2="72.8675" gradientUnits="userSpaceOnUse">
<stop stop-color="#FFEAA7"/>
<stop offset="0.427885" stop-color="#EFC539"/>
<stop offset="1" stop-color="#EAB817"/>
</linearGradient>
<linearGradient id="paint2_linear_132_535" x1="57.6763" y1="50.375" x2="57.6763" y2="59.3716" gradientUnits="userSpaceOnUse">
<stop stop-color="#FFEAA7"/>
<stop offset="0.427885" stop-color="#EFC539"/>
<stop offset="1" stop-color="#EAB817"/>
</linearGradient>
</defs>
</svg>
