<svg width="21" height="20" viewBox="0 0 21 20" fill="none" xmlns="http://www.w3.org/2000/svg">
<path d="M15.1032 6.16448C16.1516 5.93167 17.5172 4.89104 17.7251 4.37854C17.8469 4.07854 17.2391 3.60979 17.0766 3.42073C16.7047 2.98948 16.8547 2.77698 16.9985 2.26292C17.1626 1.67854 16.7735 1.03323 16.2219 0.780106C15.6704 0.526981 15.011 0.606668 14.4563 0.853544C13.9016 1.10042 13.4282 1.49729 12.9641 1.88792C12.6251 1.67386 12.0844 0.728544 11.2094 1.34261C10.6047 1.76604 10.5501 2.68792 10.6282 3.42386C10.811 5.12229 11.2297 6.00354 12.0188 6.24104C13.0157 6.54104 14.1188 6.38323 15.1032 6.16448Z" fill="#FFCA28"/>
<path d="M16.8063 1.27734C16.6735 3.56641 14.4407 5.08516 13.3813 5.75391L14.0688 6.34453C14.0688 6.34453 14.5047 6.35391 15.1016 6.16328C16.125 5.83828 17.6203 4.91953 17.7235 4.37734C17.875 3.58828 17.0657 3.76016 16.8828 3.13672C16.7875 2.80703 17.3469 2.18359 16.8063 1.27734ZM12.9657 1.88828C12.9657 1.88828 12.5672 1.48047 12.2719 1.29453C12.125 1.57109 12.0203 1.87109 11.9688 2.18047C11.8766 2.72422 11.9688 3.49609 12.186 4.07109C12.2203 4.16016 12.3485 4.14609 12.3625 4.05234C12.55 2.81641 12.9657 1.88828 12.9657 1.88828Z" fill="#E2A610"/>
<path d="M10.1813 5.9632C10.1813 5.9632 5.30784 6.48976 3.1094 10.721C0.910965 14.9523 2.77971 17.5179 4.75784 18.4523C6.73596 19.3866 11.7203 19.7163 14.9625 18.9476C18.2047 18.1788 19.0157 16.5851 18.8641 15.046C18.6438 12.7991 16.5563 11.4179 16.5563 11.4179C16.5563 11.4179 16.6391 8.64288 14.486 6.84132C12.575 5.24132 10.1813 5.9632 10.1813 5.9632Z" fill="#FFCA28"/>
<path d="M12.1813 13.0825C11.136 11.7637 9.9016 11.5872 9.50629 11.1137C9.29066 10.8559 9.1641 10.595 9.21254 10.2715C9.2641 9.92778 9.66254 9.69028 9.97191 9.63247C10.3329 9.56372 11.1938 9.59966 11.9172 10.2887C12.0891 10.4512 12.0266 10.7043 12.0219 10.9309C12.0094 11.4168 12.7047 11.8887 13.2672 11.4825C13.8313 11.0747 13.3985 10.1668 13.0344 9.72622C12.7594 9.39341 11.7625 8.6606 10.5235 8.54497C10.175 8.51216 8.77348 8.30435 7.9641 9.84341C7.73129 10.2856 7.64535 11.3543 8.8641 12.2575C9.11879 12.4465 10.4407 13.1184 10.8079 13.5543C11.4438 14.309 11.0079 14.9731 10.511 15.0606C9.15629 15.2981 8.3891 14.5653 8.24691 14.1637C8.14535 13.8778 8.2516 13.5684 8.12035 13.2997C7.98598 13.0231 7.71098 12.9137 7.42035 13.0059C6.46723 13.309 6.77035 14.3512 7.19223 14.9247C7.64379 15.5387 8.19848 15.909 8.82191 16.1122C11.1485 16.87 12.2672 15.6731 12.4625 14.7965C12.6063 14.1543 12.5907 13.5981 12.1813 13.0825Z" fill="#6B4B46"/>
<path d="M11.6188 7.6543C9.63909 11.8824 9.29846 17.2215 9.29846 17.2215" stroke="#6B4B46" stroke-width="0.78125" stroke-miterlimit="10"/>
<path d="M13.261 4.99383C14.5797 5.42352 14.8719 6.61571 14.7766 6.94071C14.6625 7.32196 13.2016 5.83758 11.0297 5.92665C10.2704 5.9579 10.4907 5.49227 10.8422 5.22352C11.3063 4.86883 12.086 4.61258 13.261 4.99383Z" fill="#6D4C41"/>
<path d="M13.261 4.99383C14.5797 5.42352 14.8719 6.61571 14.7766 6.94071C14.6625 7.32196 13.2016 5.83758 11.0297 5.92665C10.2704 5.9579 10.4907 5.49227 10.8422 5.22352C11.3063 4.86883 12.086 4.61258 13.261 4.99383Z" fill="#6B4B46"/>
<path d="M15.5765 9.19646C15.7421 9.0824 16.2984 9.27927 16.4546 10.3683C16.5312 10.9011 16.5546 11.4168 16.5546 11.4168C16.5546 11.4168 15.8984 10.8277 15.6812 10.4136C15.4078 9.89021 15.3015 9.38396 15.5765 9.19646Z" fill="#E2A610"/>
</svg>
