<svg width="22" height="23" viewBox="0 0 22 23" fill="none" xmlns="http://www.w3.org/2000/svg">
<path d="M5.49768 10.986C5.49768 8.41409 5.49768 7.12721 6.29709 6.32871C7.09559 5.5293 8.38247 5.5293 10.9544 5.5293H13.6828C16.2547 5.5293 17.5416 5.5293 18.3401 6.32871C19.1395 7.12721 19.1395 8.41409 19.1395 10.986V15.5333C19.1395 18.1052 19.1395 19.3921 18.3401 20.1906C17.5416 20.99 16.2547 20.99 13.6828 20.99H10.9544C8.38247 20.99 7.09559 20.99 6.29709 20.1906C5.49768 19.3921 5.49768 18.1052 5.49768 15.5333V10.986Z" stroke="#B7B7B7" stroke-width="1.63702"/>
<path d="M5.49777 18.2615C4.77417 18.2615 4.0802 17.9741 3.56853 17.4624C3.05686 16.9507 2.76941 16.2568 2.76941 15.5332V10.0764C2.76941 6.64687 2.76941 4.93163 3.83529 3.86666C4.90117 2.80169 6.61549 2.80078 10.0451 2.80078H13.6829C14.4065 2.80078 15.1004 3.08823 15.6121 3.5999C16.1238 4.11157 16.4112 4.80554 16.4112 5.52915" stroke="#B7B7B7" stroke-width="1.63702"/>
</svg>
