<svg width="46" height="46" viewBox="0 0 46 46" fill="none" xmlns="http://www.w3.org/2000/svg">
<path d="M36.9342 10.2152C34.385 9.02685 31.625 8.16435 28.75 7.66602C28.6995 7.66674 28.6512 7.6874 28.6159 7.72352C28.2709 8.35602 27.8684 9.18018 27.6 9.81268C24.5506 9.35297 21.4495 9.35297 18.4 9.81268C18.1317 9.16102 17.7292 8.35602 17.365 7.72352C17.3459 7.68518 17.2884 7.66602 17.2309 7.66602C14.3559 8.16435 11.615 9.02685 9.04669 10.2152C9.02752 10.2152 9.00835 10.2343 8.98919 10.2535C3.77585 18.0543 2.33835 25.6443 3.04752 33.1577C3.04752 33.196 3.06669 33.2343 3.10502 33.2535C6.55502 35.7835 9.87085 37.3168 13.1484 38.3327C13.2059 38.3518 13.2634 38.3327 13.2825 38.2943C14.0492 37.2402 14.7392 36.1285 15.3334 34.9593C15.3717 34.8827 15.3334 34.806 15.2567 34.7868C14.1642 34.3652 13.1292 33.8668 12.1134 33.2918C12.0367 33.2535 12.0367 33.1385 12.0942 33.081C12.305 32.9277 12.5159 32.7552 12.7267 32.6018C12.765 32.5635 12.8225 32.5635 12.8609 32.5827C19.4542 35.5918 26.565 35.5918 33.0817 32.5827C33.12 32.5635 33.1775 32.5635 33.2159 32.6018C33.4267 32.7743 33.6375 32.9277 33.8484 33.1002C33.925 33.1577 33.925 33.2727 33.8292 33.311C32.8325 33.9052 31.7784 34.3843 30.6859 34.806C30.6092 34.8252 30.59 34.921 30.6092 34.9785C31.2225 36.1477 31.9125 37.2593 32.66 38.3135C32.7175 38.3327 32.775 38.3518 32.8325 38.3327C36.1292 37.3168 39.445 35.7835 42.895 33.2535C42.9333 33.2343 42.9525 33.196 42.9525 33.1577C43.7958 24.4752 41.5533 16.9427 37.0108 10.2535C36.9917 10.2343 36.9725 10.2152 36.9342 10.2152ZM16.33 28.5768C14.3559 28.5768 12.7075 26.756 12.7075 24.5135C12.7075 22.271 14.3175 20.4502 16.33 20.4502C18.3617 20.4502 19.9717 22.2902 19.9525 24.5135C19.9525 26.756 18.3425 28.5768 16.33 28.5768ZM29.6892 28.5768C27.715 28.5768 26.0667 26.756 26.0667 24.5135C26.0667 22.271 27.6767 20.4502 29.6892 20.4502C31.7209 20.4502 33.3309 22.2902 33.3117 24.5135C33.3117 26.756 31.7209 28.5768 29.6892 28.5768Z" fill="#A3A3A3"/>
</svg>
