<svg width="32" height="32" viewBox="0 0 32 32" fill="none" xmlns="http://www.w3.org/2000/svg">
<g clip-path="url(#clip0_120_436)">
<path d="M12 2C12.2652 2 12.5196 2.10536 12.7071 2.29289C12.8946 2.48043 13 2.73478 13 3V4H17C17.7956 4 18.5587 4.31607 19.1213 4.87868C19.6839 5.44129 20 6.20435 20 7V8.166C19.7627 8.25 19.538 8.36733 19.326 8.518C18.846 8.858 18.486 9.338 18.266 9.94L17.566 12.084C17.4484 12.4382 17.2498 12.76 16.986 13.024C16.726 13.286 16.404 13.506 16.084 13.606L13.902 14.306C13.508 14.4451 13.1493 14.6689 12.8511 14.9616C12.5529 15.2543 12.3225 15.6087 12.176 16H7C6.20435 16 5.44129 15.6839 4.87868 15.1213C4.31607 14.5587 4 13.7956 4 13V7C4 6.20435 4.31607 5.44129 4.87868 4.87868C5.44129 4.31607 6.20435 4 7 4H11V3C11 2.73478 11.1054 2.48043 11.2929 2.29289C11.4804 2.10536 11.7348 2 12 2ZM13.94 19.696C13.5187 19.5556 13.1369 19.317 12.826 19H5C4.20435 19 3.44129 19.3161 2.87868 19.8787C2.31607 20.4413 2 21.2043 2 22V22.7C2 25.31 3.2 27.2 5.108 28.386C6.958 29.536 9.42 30 12 30C14.594 30 17.056 29.538 18.904 28.386C19.3253 28.126 19.708 27.8307 20.052 27.5C19.9502 26.9612 20.0187 26.4041 20.248 25.906C19.928 25.826 19.628 25.686 19.348 25.486C18.8724 25.1377 18.51 24.657 18.306 24.104L17.586 21.92C17.406 21.46 17.226 21.2 17.006 20.98C16.7374 20.7206 16.4161 20.5221 16.064 20.398L13.94 19.696ZM9 11.5C9.39782 11.5 9.77936 11.342 10.0607 11.0607C10.342 10.7794 10.5 10.3978 10.5 10C10.5 9.60217 10.342 9.22064 10.0607 8.93934C9.77936 8.65803 9.39782 8.5 9 8.5C8.60217 8.5 8.22064 8.65803 7.93934 8.93934C7.65803 9.22064 7.5 9.60217 7.5 10C7.5 10.3978 7.65803 10.7794 7.93934 11.0607C8.22064 11.342 8.60217 11.5 9 11.5ZM16.5 10C16.5 9.60217 16.342 9.22064 16.0607 8.93934C15.7794 8.65803 15.3978 8.5 15 8.5C14.6022 8.5 14.2206 8.65803 13.9393 8.93934C13.658 9.22064 13.5 9.60217 13.5 10C13.5 10.3978 13.658 10.7794 13.9393 11.0607C14.2206 11.342 14.6022 11.5 15 11.5C15.3978 11.5 15.7794 11.342 16.0607 11.0607C16.342 10.7794 16.5 10.3978 16.5 10ZM21.756 10.564L22.452 12.706C22.6678 13.3575 23.0331 13.9495 23.5186 14.4346C24.0041 14.9198 24.5963 15.2846 25.248 15.5L27.392 16.196L27.434 16.208C27.5992 16.2662 27.7423 16.3742 27.8435 16.5171C27.9447 16.66 27.9991 16.8309 27.9991 17.006C27.9991 17.1811 27.9447 17.352 27.8435 17.4949C27.7423 17.6378 27.5992 17.7458 27.434 17.804L25.292 18.5C24.64 18.7151 24.0473 19.0798 23.5615 19.565C23.0756 20.0501 22.71 20.6423 22.494 21.294L21.798 23.434C21.7398 23.5992 21.6318 23.7423 21.4889 23.8435C21.346 23.9447 21.1751 23.9991 21 23.9991C20.8249 23.9991 20.654 23.9447 20.5111 23.8435C20.3682 23.7423 20.2602 23.5992 20.202 23.434L19.506 21.294C19.2559 20.5363 18.8045 19.8609 18.2 19.34C17.7629 18.9605 17.2552 18.671 16.706 18.488L14.562 17.792C14.3968 17.7338 14.2537 17.6258 14.1525 17.4829C14.0513 17.34 13.9969 17.1691 13.9969 16.994C13.9969 16.8189 14.0513 16.648 14.1525 16.5051C14.2537 16.3622 14.3968 16.2542 14.562 16.196L16.706 15.5C17.3499 15.2791 17.9338 14.9117 18.4116 14.4269C18.8895 13.9421 19.2484 13.353 19.46 12.706L20.156 10.566C20.2137 10.4001 20.3217 10.2563 20.4649 10.1545C20.608 10.0527 20.7793 9.99805 20.955 9.99805C21.1307 9.99805 21.302 10.0527 21.4451 10.1545C21.5883 10.2563 21.6963 10.4001 21.754 10.566M31.564 26.428L30.034 25.932C29.5686 25.7773 29.1456 25.5164 28.7985 25.17C28.4513 24.8236 28.1896 24.4011 28.034 23.936L27.538 22.406C27.4966 22.2879 27.4195 22.1855 27.3174 22.1131C27.2153 22.0407 27.0932 22.0018 26.968 22.0018C26.8428 22.0018 26.7207 22.0407 26.6186 22.1131C26.5165 22.1855 26.4394 22.2879 26.398 22.406L25.898 23.936C25.7458 24.3975 25.4893 24.8176 25.1483 25.1638C24.8073 25.51 24.3911 25.7728 23.932 25.932L22.402 26.428C22.314 26.4594 22.2344 26.5107 22.1694 26.5779C22.1045 26.6451 22.056 26.7265 22.0277 26.8155C21.9994 26.9046 21.9922 26.999 22.0064 27.0914C22.0207 27.1838 22.0562 27.2716 22.11 27.348C22.182 27.448 22.284 27.528 22.402 27.568L23.932 28.066C24.3982 28.2215 24.8218 28.4836 25.169 28.8315C25.5162 29.1794 25.7774 29.6034 25.932 30.07L26.428 31.598C26.4694 31.7161 26.5465 31.8185 26.6486 31.8909C26.7507 31.9633 26.8728 32.0022 26.998 32.0022C27.1232 32.0022 27.2453 31.9633 27.3474 31.8909C27.4495 31.8185 27.5266 31.7161 27.568 31.598L28.066 30.07C28.2211 29.6048 28.4825 29.182 28.8292 28.8352C29.176 28.4885 29.5988 28.2271 30.064 28.072L31.594 27.576C31.7121 27.5346 31.8145 27.4575 31.8869 27.3554C31.9593 27.2533 31.9982 27.1312 31.9982 27.006C31.9982 26.8808 31.9593 26.7587 31.8869 26.6566C31.8145 26.5545 31.7121 26.4774 31.594 26.436L31.564 26.428Z" fill="url(#paint0_linear_120_436)"/>
</g>
<defs>
<linearGradient id="paint0_linear_120_436" x1="16.9991" y1="2" x2="16.9991" y2="32.0022" gradientUnits="userSpaceOnUse">
<stop stop-color="#E8B613"/>
<stop offset="1" stop-color="#937101"/>
</linearGradient>
<clipPath id="clip0_120_436">
<rect width="32" height="32" fill="white"/>
</clipPath>
</defs>
</svg>
