<svg width="47" height="46" viewBox="0 0 47 46" fill="none" xmlns="http://www.w3.org/2000/svg">
<path d="M36.9722 5.75C37.9889 5.75 38.9639 6.15387 39.6828 6.87276C40.4017 7.59165 40.8055 8.56667 40.8055 9.58333V36.4167C40.8055 37.4333 40.4017 38.4084 39.6828 39.1272C38.9639 39.8461 37.9889 40.25 36.9722 40.25H10.1389C9.12221 40.25 8.14719 39.8461 7.4283 39.1272C6.70941 38.4084 6.30554 37.4333 6.30554 36.4167V9.58333C6.30554 8.56667 6.70941 7.59165 7.4283 6.87276C8.14719 6.15387 9.12221 5.75 10.1389 5.75H36.9722ZM36.0139 35.4583V25.3C36.0139 23.6428 35.3556 22.0536 34.1838 20.8818C33.012 19.71 31.4227 19.0517 29.7655 19.0517C28.1364 19.0517 26.2389 20.0483 25.3189 21.5433V19.4158H19.9714V35.4583H25.3189V26.0092C25.3189 24.5333 26.5072 23.3258 27.983 23.3258C28.6947 23.3258 29.3772 23.6085 29.8804 24.1118C30.3837 24.615 30.6664 25.2975 30.6664 26.0092V35.4583H36.0139ZM13.7422 16.4067C14.5962 16.4067 15.4152 16.0674 16.0191 15.4636C16.623 14.8597 16.9622 14.0407 16.9622 13.1867C16.9622 11.4042 15.5247 9.9475 13.7422 9.9475C12.8831 9.9475 12.0592 10.2888 11.4518 10.8962C10.8443 11.5037 10.503 12.3276 10.503 13.1867C10.503 14.9692 11.9597 16.4067 13.7422 16.4067ZM16.4064 35.4583V19.4158H11.0972V35.4583H16.4064Z" fill="#A3A3A3"/>
</svg>
