<svg width="87" height="88" viewBox="0 0 87 88" fill="none" xmlns="http://www.w3.org/2000/svg">
<path d="M59.0088 8.09375H47.3133C27.438 8.09375 11.3269 24.2048 11.3269 44.0801C11.3269 63.9554 27.438 80.0665 47.3133 80.0665H59.0088V62.0733H47.3133C42.5412 62.0733 37.9645 60.1776 34.5902 56.8032C31.2158 53.4288 29.3201 48.8522 29.3201 44.0801C29.3201 39.308 31.2158 34.7314 34.5902 31.357C37.9645 27.9826 42.5412 26.0869 47.3133 26.0869H59.0088V8.09375ZM64.4068 26.0869H70.7044C72.136 26.0869 73.509 25.5182 74.5213 24.5059C75.5336 23.4936 76.1024 22.1206 76.1024 20.689V13.4917C76.1024 12.0601 75.5336 10.6871 74.5213 9.67477C73.509 8.66246 72.136 8.09375 70.7044 8.09375H64.4068V26.0869ZM64.4068 62.0733V80.0665H70.7044C72.136 80.0665 73.509 79.4978 74.5213 78.4855C75.5336 77.4731 76.1024 76.1002 76.1024 74.6685V67.4713C76.1024 66.0396 75.5336 64.6666 74.5213 63.6543C73.509 62.642 72.136 62.0733 70.7044 62.0733H64.4068Z" fill="url(#paint0_linear_132_514)"/>
<defs>
<linearGradient id="paint0_linear_132_514" x1="43.7146" y1="8.09375" x2="43.7146" y2="80.0665" gradientUnits="userSpaceOnUse">
<stop stop-color="#FFE79A"/>
<stop offset="0.427885" stop-color="#FFD95E"/>
<stop offset="1" stop-color="#D5A91B"/>
</linearGradient>
</defs>
</svg>
