<svg width="71" height="71" viewBox="0 0 71 71" fill="none" xmlns="http://www.w3.org/2000/svg">
<g clip-path="url(#clip0_132_598)">
<g filter="url(#filter0_d_132_598)">
<path fill-rule="evenodd" clip-rule="evenodd" d="M39.0974 23.7578C38.1823 21.9796 36.8539 20.4469 35.2238 19.2885C33.5937 18.13 31.7094 17.3795 29.7292 17.1001C27.749 16.8207 25.7306 17.0205 23.8436 17.6827C21.9566 18.3449 20.256 19.4502 18.8846 20.9058C17.9973 21.8473 18.0413 23.3316 18.9828 24.2189L26.5376 31.3389C26.3183 34.1788 26.4029 37.034 26.79 39.8558L19.6699 47.4107C18.7826 48.3522 18.8266 49.8364 19.7681 50.7238C21.2232 52.0956 22.9863 53.0983 24.9092 53.6476C26.8321 54.1969 28.8587 54.2769 30.8189 53.8807C32.7791 53.4846 34.6157 52.6239 36.1743 51.3709C37.733 50.118 38.9683 48.5094 39.7765 46.6801C44.4286 46.7455 49.0433 45.8412 53.3265 44.0247C57.6098 42.2083 61.4678 39.5195 64.6546 36.1298C65.0809 35.6775 65.3101 35.0743 65.2917 34.4529C65.2733 33.8316 65.0088 33.243 64.5564 32.8167C61.1745 29.6216 57.1642 27.166 52.7808 25.6063C48.3975 24.0466 43.7374 23.4171 39.0974 23.7578ZM49.7947 38.2281C48.942 39.1328 47.7649 39.6618 46.5222 39.6986C45.2796 39.7354 44.0732 39.2771 43.1685 38.4244C42.2638 37.5718 41.7348 36.3946 41.698 35.152C41.6612 33.9093 42.1195 32.7029 42.9722 31.7982C43.8248 30.8935 45.002 30.3645 46.2446 30.3277C47.4873 30.2909 48.6937 30.7492 49.5984 31.6019C50.5031 32.4545 51.0321 33.6317 51.0689 34.8743C51.1057 36.117 50.6474 37.3234 49.7947 38.2281Z" fill="url(#paint0_linear_132_598)"/>
<path d="M49.7699 31.4199C48.8765 30.578 47.7039 30.1014 46.4824 30.0769L46.2372 30.078C44.9283 30.1168 43.6884 30.6737 42.7902 31.6267C41.9483 32.52 41.4717 33.6926 41.4472 34.9141L41.4483 35.1593C41.4871 36.4683 42.0441 37.7082 42.997 38.6063C43.8904 39.4483 45.0629 39.9249 46.2844 39.9493L46.5297 39.9483C47.8386 39.9095 49.0785 39.3525 49.9766 38.3995C50.8186 37.5062 51.2952 36.3336 51.3196 35.1121L51.3186 34.8669C51.2798 33.558 50.7228 32.318 49.7699 31.4199ZM27.054 39.9402L27.0381 39.8218C26.6534 37.0176 26.5693 34.1803 26.7873 31.3582L26.7962 31.2391L19.1543 24.0369C18.3133 23.2443 18.274 21.9183 19.0666 21.0772L19.3227 20.814C20.5333 19.6039 21.9838 18.6604 23.5812 18.0454L23.9263 17.9184C25.6601 17.31 27.5072 17.0999 29.3304 17.3017L29.6938 17.3476C31.5132 17.6043 33.2506 18.2666 34.777 19.284L35.0788 19.492C36.6763 20.6272 37.9781 22.1295 38.8749 23.872L38.9511 24.019L39.1151 24.0072C43.4327 23.6902 47.7684 24.2191 51.8781 25.562L52.6975 25.8417C56.7761 27.293 60.5296 29.5258 63.7486 32.4123L64.385 32.9986C64.7387 33.332 64.9636 33.7764 65.0253 34.2542L65.0418 34.4603C65.0582 35.0154 64.8535 35.5542 64.4727 35.9583L63.8722 36.5813C61.0325 39.4485 57.694 41.7741 54.0211 43.4458L53.2294 43.7946C48.9781 45.5975 44.3968 46.495 39.7795 46.43L39.615 46.428L39.5476 46.5792C38.7556 48.3718 37.545 49.9485 36.0176 51.1763C34.5857 52.3273 32.9145 53.1404 31.1286 53.5574L30.7689 53.6358C28.8481 54.0239 26.8621 53.9457 24.9778 53.4074C23.0933 52.869 21.3656 51.8862 19.9396 50.5418L19.7913 50.3873C19.0968 49.5855 19.1088 48.3706 19.8519 47.5821L27.054 39.9402Z" stroke="white" stroke-width="0.5"/>
</g>
<g filter="url(#filter1_d_132_598)">
<mask id="path-3-inside-1_132_598" fill="white">
<path d="M20.2718 32.6555C20.5687 32.5646 20.8445 32.4157 21.0833 32.2174C21.3221 32.019 21.5191 31.7752 21.6629 31.5001C21.8067 31.2249 21.8944 30.924 21.9209 30.6147C21.9474 30.3054 21.9123 29.9939 21.8174 29.6983C21.7226 29.4027 21.5699 29.1289 21.3684 28.8928C21.1668 28.6567 20.9204 28.463 20.6434 28.3229C20.3663 28.1828 20.0642 28.0991 19.7546 28.0768C19.445 28.0544 19.134 28.0938 18.8397 28.1926C15.3622 29.314 12.4191 31.6762 10.5716 34.8286C10.3491 35.2087 10.2382 35.6439 10.2517 36.0841C10.2651 36.5244 10.4023 36.952 10.6476 37.3178C12.6792 40.3536 15.7568 42.5358 19.2939 43.4483C19.596 43.5377 19.913 43.5652 20.226 43.5293C20.539 43.4934 20.8415 43.3948 21.1155 43.2393C21.3895 43.0839 21.6293 42.8748 21.8207 42.6245C22.012 42.3743 22.151 42.088 22.2292 41.7828C22.3074 41.4777 22.3233 41.1599 22.276 40.8484C22.2286 40.537 22.1189 40.2383 21.9535 39.9702C21.7881 39.7021 21.5703 39.4701 21.3132 39.288C21.0561 39.106 20.765 38.9776 20.4571 38.9107C18.5483 38.4209 16.8245 37.383 15.4986 35.9251C16.7368 34.3916 18.3969 33.2542 20.274 32.6532"/>
</mask>
<path d="M20.2718 32.6555C20.5687 32.5646 20.8445 32.4157 21.0833 32.2174C21.3221 32.019 21.5191 31.7752 21.6629 31.5001C21.8067 31.2249 21.8944 30.924 21.9209 30.6147C21.9474 30.3054 21.9123 29.9939 21.8174 29.6983C21.7226 29.4027 21.5699 29.1289 21.3684 28.8928C21.1668 28.6567 20.9204 28.463 20.6434 28.3229C20.3663 28.1828 20.0642 28.0991 19.7546 28.0768C19.445 28.0544 19.134 28.0938 18.8397 28.1926C15.3622 29.314 12.4191 31.6762 10.5716 34.8286C10.3491 35.2087 10.2382 35.6439 10.2517 36.0841C10.2651 36.5244 10.4023 36.952 10.6476 37.3178C12.6792 40.3536 15.7568 42.5358 19.2939 43.4483C19.596 43.5377 19.913 43.5652 20.226 43.5293C20.539 43.4934 20.8415 43.3948 21.1155 43.2393C21.3895 43.0839 21.6293 42.8748 21.8207 42.6245C22.012 42.3743 22.151 42.088 22.2292 41.7828C22.3074 41.4777 22.3233 41.1599 22.276 40.8484C22.2286 40.537 22.1189 40.2383 21.9535 39.9702C21.7881 39.7021 21.5703 39.4701 21.3132 39.288C21.0561 39.106 20.765 38.9776 20.4571 38.9107C18.5483 38.4209 16.8245 37.383 15.4986 35.9251C16.7368 34.3916 18.3969 33.2542 20.274 32.6532" fill="url(#paint1_linear_132_598)"/>
<path d="M18.8397 28.1926L18.9932 28.6685L18.9989 28.6666L18.8397 28.1926ZM10.5716 34.8286L10.1403 34.5758L10.1401 34.576L10.5716 34.8286ZM10.6476 37.3178L11.0631 37.0397L11.0629 37.0394L10.6476 37.3178ZM19.2939 43.4483L19.4358 42.9688L19.4273 42.9663L19.4188 42.9641L19.2939 43.4483ZM20.4571 38.9107L20.3329 39.395L20.3418 39.3973L20.3508 39.3992L20.4571 38.9107ZM15.4986 35.9251L15.1096 35.6109L14.8403 35.9444L15.1287 36.2615L15.4986 35.9251ZM20.2718 32.6555L20.4182 33.1336C20.7783 33.0234 21.113 32.8426 21.4028 32.602L21.0833 32.2174L20.7638 31.8327C20.576 31.9888 20.359 32.1059 20.1255 32.1774L20.2718 32.6555ZM21.0833 32.2174L21.4028 32.602C21.6925 32.3613 21.9316 32.0655 22.106 31.7317L21.6629 31.5001L21.2198 31.2685C21.1067 31.4849 20.9517 31.6767 20.7638 31.8327L21.0833 32.2174ZM21.6629 31.5001L22.106 31.7317C22.2805 31.3979 22.3869 31.0327 22.4191 30.6574L21.9209 30.6147L21.4228 30.572C21.4019 30.8153 21.3329 31.052 21.2198 31.2685L21.6629 31.5001ZM21.9209 30.6147L22.4191 30.6574C22.4513 30.2821 22.4086 29.9042 22.2935 29.5455L21.8174 29.6983L21.3413 29.8511C21.4159 30.0836 21.4436 30.3287 21.4228 30.572L21.9209 30.6147ZM21.8174 29.6983L22.2935 29.5455C22.1784 29.1869 21.9932 28.8547 21.7487 28.5682L21.3684 28.8928L20.9881 29.2174C21.1466 29.4032 21.2667 29.6186 21.3413 29.8511L21.8174 29.6983ZM21.3684 28.8928L21.7487 28.5682C21.5042 28.2817 21.2051 28.0467 20.869 27.8767L20.6434 28.3229L20.4177 28.7691C20.6357 28.8793 20.8295 29.0317 20.9881 29.2174L21.3684 28.8928ZM20.6434 28.3229L20.869 27.8767C20.5329 27.7067 20.1663 27.6052 19.7906 27.5781L19.7546 28.0768L19.7186 28.5755C19.9622 28.5931 20.1998 28.6589 20.4177 28.7691L20.6434 28.3229ZM19.7546 28.0768L19.7906 27.5781C19.415 27.5509 19.0376 27.5987 18.6806 27.7186L18.8397 28.1926L18.9989 28.6666C19.2304 28.5888 19.475 28.5579 19.7186 28.5755L19.7546 28.0768ZM18.8397 28.1926L18.6863 27.7167C15.0918 28.8759 12.0498 31.3174 10.1403 34.5758L10.5716 34.8286L11.003 35.0814C12.7884 32.035 15.6325 29.7522 18.9932 28.6685L18.8397 28.1926ZM10.5716 34.8286L10.1401 34.576C9.87015 35.0372 9.73559 35.5652 9.75189 36.0994L10.2517 36.0841L10.7514 36.0689C10.7409 35.7226 10.8281 35.3802 11.0031 35.0812L10.5716 34.8286ZM10.2517 36.0841L9.75189 36.0994C9.76819 36.6336 9.93469 37.1523 10.2323 37.5962L10.6476 37.3178L11.0629 37.0394C10.8699 36.7516 10.762 36.4152 10.7514 36.0689L10.2517 36.0841ZM10.6476 37.3178L10.2321 37.5959C12.332 40.7338 15.513 42.9892 19.169 43.9324L19.2939 43.4483L19.4188 42.9641C16.0006 42.0823 13.0264 39.9735 11.0631 37.0397L10.6476 37.3178ZM19.2939 43.4483L19.1521 43.9277C19.5186 44.0362 19.9032 44.0696 20.283 44.0261L20.226 43.5293L20.169 43.0326C19.9228 43.0608 19.6734 43.0391 19.4358 42.9688L19.2939 43.4483ZM20.226 43.5293L20.283 44.0261C20.6627 43.9825 21.0298 43.8628 21.3622 43.6742L21.1155 43.2393L20.8687 42.8044C20.6532 42.9267 20.4152 43.0043 20.169 43.0326L20.226 43.5293ZM21.1155 43.2393L21.3622 43.6742C21.6947 43.4856 21.9857 43.2319 22.2179 42.9282L21.8207 42.6245L21.4235 42.3208C21.2729 42.5177 21.0843 42.6822 20.8687 42.8044L21.1155 43.2393ZM21.8207 42.6245L22.2179 42.9282C22.45 42.6246 22.6186 42.2773 22.7135 41.907L22.2292 41.7828L21.7449 41.6587C21.6833 41.8987 21.574 42.1239 21.4235 42.3208L21.8207 42.6245ZM22.2292 41.7828L22.7135 41.907C22.8085 41.5367 22.8278 41.1512 22.7703 40.7733L22.276 40.8484L21.7817 40.9236C21.8189 41.1686 21.8064 41.4186 21.7449 41.6587L22.2292 41.7828ZM22.276 40.8484L22.7703 40.7733C22.7128 40.3954 22.5797 40.033 22.379 39.7077L21.9535 39.9702L21.528 40.2327C21.6581 40.4436 21.7444 40.6786 21.7817 40.9236L22.276 40.8484ZM21.9535 39.9702L22.379 39.7077C22.1783 39.3824 21.9141 39.1008 21.6022 38.88L21.3132 39.288L21.0243 39.6961C21.2266 39.8393 21.3979 40.0218 21.528 40.2327L21.9535 39.9702ZM21.3132 39.288L21.6022 38.88C21.2902 38.6591 20.9369 38.5034 20.5634 38.4221L20.4571 38.9107L20.3508 39.3992C20.593 39.4519 20.8221 39.5529 21.0243 39.6961L21.3132 39.288ZM20.4571 38.9107L20.5814 38.4264C18.7671 37.9608 17.1287 36.9743 15.8685 35.5886L15.4986 35.9251L15.1287 36.2615C16.5203 37.7916 18.3294 38.8809 20.3329 39.395L20.4571 38.9107ZM15.4986 35.9251L15.8876 36.2392C17.0645 34.7817 18.6423 33.7006 20.4264 33.1294L20.274 32.6532L20.1215 32.1771C18.1514 32.8078 16.4091 34.0015 15.1096 35.6109L15.4986 35.9251Z" fill="white" mask="url(#path-3-inside-1_132_598)"/>
</g>
</g>
<defs>
<filter id="filter0_d_132_598" x="14.2468" y="12.9766" width="57.0459" height="47.1523" filterUnits="userSpaceOnUse" color-interpolation-filters="sRGB">
<feFlood flood-opacity="0" result="BackgroundImageFix"/>
<feColorMatrix in="SourceAlpha" type="matrix" values="0 0 0 0 0 0 0 0 0 0 0 0 0 0 0 0 0 0 127 0" result="hardAlpha"/>
<feOffset dx="1" dy="1"/>
<feGaussianBlur stdDeviation="2.5"/>
<feComposite in2="hardAlpha" operator="out"/>
<feColorMatrix type="matrix" values="0 0 0 0 0.942308 0 0 0 0 0.942308 0 0 0 0 0.942308 0 0 0 0.47 0"/>
<feBlend mode="screen" in2="BackgroundImageFix" result="effect1_dropShadow_132_598"/>
<feBlend mode="normal" in="SourceGraphic" in2="effect1_dropShadow_132_598" result="shape"/>
</filter>
<filter id="filter1_d_132_598" x="1.25061" y="23.0703" width="22.052" height="25.4746" filterUnits="userSpaceOnUse" color-interpolation-filters="sRGB">
<feFlood flood-opacity="0" result="BackgroundImageFix"/>
<feColorMatrix in="SourceAlpha" type="matrix" values="0 0 0 0 0 0 0 0 0 0 0 0 0 0 0 0 0 0 127 0" result="hardAlpha"/>
<feOffset dx="-4"/>
<feGaussianBlur stdDeviation="2.5"/>
<feComposite in2="hardAlpha" operator="out"/>
<feColorMatrix type="matrix" values="0 0 0 0 1 0 0 0 0 1 0 0 0 0 1 0 0 0 1 0"/>
<feBlend mode="normal" in2="BackgroundImageFix" result="effect1_dropShadow_132_598"/>
<feBlend mode="normal" in="SourceGraphic" in2="effect1_dropShadow_132_598" result="shape"/>
</filter>
<linearGradient id="paint0_linear_132_598" x1="50.3429" y1="19.4211" x2="20.3366" y2="51.2596" gradientUnits="userSpaceOnUse">
<stop stop-color="#E0E0E0"/>
<stop offset="0.466346" stop-color="#A3A3A3"/>
<stop offset="1" stop-color="#727272"/>
</linearGradient>
<linearGradient id="paint1_linear_132_598" x1="23.4141" y1="30.8019" x2="13.8988" y2="40.8983" gradientUnits="userSpaceOnUse">
<stop stop-color="#E0E0E0"/>
<stop offset="0.466346" stop-color="#A3A3A3"/>
<stop offset="1" stop-color="#727272"/>
</linearGradient>
<clipPath id="clip0_132_598">
<rect width="50" height="50" fill="white" transform="translate(34.2927) rotate(43.3029)"/>
</clipPath>
</defs>
</svg>
