<svg width="88" height="88" viewBox="0 0 88 88" fill="none" xmlns="http://www.w3.org/2000/svg">
<path d="M24.6235 76.4669C22.9657 76.4669 21.5827 75.9127 20.4743 74.8043C19.3659 73.6959 18.8105 72.3128 18.8081 70.6551V17.5032C18.8081 15.8478 19.3635 14.466 20.4743 13.3576C21.5851 12.2492 22.9681 11.6938 24.6235 11.6914H63.3772C65.0326 11.6914 66.4157 12.2468 67.5264 13.3576C68.6372 14.4684 69.1914 15.8514 69.189 17.5068V70.6551C69.189 72.3104 68.6348 73.6935 67.5264 74.8043C66.4181 75.9151 65.0338 76.4693 63.3736 76.4669H24.6235ZM43.9986 37.2993L51.1958 33.0061L58.3931 37.2993V15.29H43.9986V37.2993Z" fill="url(#paint0_linear_132_530)"/>
<defs>
<linearGradient id="paint0_linear_132_530" x1="43.9986" y1="11.6914" x2="43.9986" y2="76.4669" gradientUnits="userSpaceOnUse">
<stop stop-color="#FFE79A"/>
<stop offset="0.461538" stop-color="#F4CD50"/>
<stop offset="1" stop-color="#DBAB0D"/>
</linearGradient>
</defs>
</svg>
