<svg width="46" height="46" viewBox="0 0 46 46" fill="none" xmlns="http://www.w3.org/2000/svg">
<path d="M23 3.83398C12.42 3.83398 3.83337 12.4207 3.83337 23.0007C3.83337 33.5807 12.42 42.1673 23 42.1673C33.58 42.1673 42.1667 33.5807 42.1667 23.0007C42.1667 12.4207 33.58 3.83398 23 3.83398ZM31.8934 16.8673C31.6059 19.8957 30.36 27.2556 29.7275 30.6481C29.4592 32.0856 28.9225 32.5648 28.4242 32.6223C27.3125 32.7182 26.4692 31.894 25.3959 31.1848C23.7092 30.0732 22.7509 29.3832 21.1217 28.3098C19.2242 27.064 20.4509 26.374 21.5434 25.2623C21.8309 24.9748 26.7375 20.509 26.8334 20.1065C26.8467 20.0455 26.8449 19.9822 26.8282 19.9221C26.8115 19.862 26.7804 19.8068 26.7375 19.7615C26.6225 19.6657 26.4692 19.704 26.335 19.7232C26.1625 19.7615 23.4792 21.544 18.2467 25.0707C17.48 25.5882 16.79 25.8565 16.1767 25.8373C15.4867 25.8181 14.1834 25.454 13.2059 25.1281C11.9984 24.7448 11.0592 24.534 11.1359 23.8631C11.1742 23.5182 11.6534 23.1731 12.5542 22.809C18.1509 20.3748 21.8692 18.7648 23.7284 17.9982C29.0567 15.7748 30.1492 15.3915 30.8775 15.3915C31.0309 15.3915 31.395 15.4298 31.625 15.6215C31.8167 15.7748 31.8742 15.9857 31.8934 16.139C31.8742 16.254 31.9125 16.599 31.8934 16.8673Z" fill="#A3A3A3"/>
</svg>
